<svg width="41" height="41" viewBox="0 0 41 41" fill="none" xmlns="http://www.w3.org/2000/svg">
<path d="M32.8342 22.6696L34.85 25.1979C35.2522 25.7003 35.5044 26.306 35.5775 26.9453C35.6506 27.5847 35.5416 28.2317 35.2631 28.8118C34.9846 29.392 34.548 29.8817 34.0034 30.2246C33.4589 30.5675 32.8286 30.7496 32.185 30.75H8.81505C8.17153 30.7496 7.54121 30.5675 6.99665 30.2246C6.4521 29.8817 6.01545 29.392 5.73698 28.8118C5.45851 28.2317 5.34954 27.5847 5.42262 26.9453C5.49569 26.306 5.74785 25.7003 6.15005 25.1979L8.16588 22.6696C8.40703 22.369 8.53948 21.9958 8.54171 21.6104V15.8704C8.49673 12.7024 9.67598 9.63919 11.8337 7.31915C13.9915 4.9991 16.9612 3.60118 20.1242 3.41667C21.7259 3.36631 23.3215 3.63839 24.816 4.21677C26.3105 4.79514 27.6735 5.668 28.824 6.78349C29.9746 7.89898 30.8892 9.23434 31.5135 10.7102C32.1379 12.1862 32.4592 13.7725 32.4584 15.375V21.6104C32.4606 21.9958 32.5931 22.369 32.8342 22.6696Z" fill="#382212"/>
<path d="M27.3333 30.75C27.3333 32.5623 26.6134 34.3004 25.3319 35.5819C24.0504 36.8634 22.3123 37.5833 20.5 37.5833C18.6876 37.5833 16.9496 36.8634 15.6681 35.5819C14.3866 34.3004 13.6666 32.5623 13.6666 30.75" fill="#382212"/>
</svg>
