<svg width="21" height="24" viewBox="0 0 21 24" fill="none" xmlns="http://www.w3.org/2000/svg">
<path d="M21 11.9999C21 10.6763 19.8227 9.59994 18.375 9.59994H17.0625V5.99994C17.0625 2.69154 14.1186 -6.10352e-05 10.5 -6.10352e-05C6.88144 -6.10352e-05 3.9375 2.69154 3.9375 5.99994V9.59994H2.625C1.17731 9.59994 0 10.6763 0 11.9999V21.5999C0 22.9235 1.17731 23.9999 2.625 23.9999H18.375C19.8227 23.9999 21 22.9235 21 21.5999V11.9999ZM6.5625 5.99994C6.5625 4.01514 8.32913 2.39994 10.5 2.39994C12.6709 2.39994 14.4375 4.01514 14.4375 5.99994V9.59994H6.5625V5.99994Z" fill="#273240"/>
</svg>
